<?xml version="1.0" encoding="UTF-8"?>
<svg width="1024px" height="548px" viewBox="0 0 1024 548" version="1.1" xmlns="http://www.w3.org/2000/svg" xmlns:xlink="http://www.w3.org/1999/xlink" style="background: #FFFFFF;">
    <!-- Generator: Sketch 47.1 (45422) - http://www.bohemiancoding.com/sketch -->
    <title>Desktop</title>
    <desc>Created with Sketch.</desc>
    <defs>
        <rect id="path-1" x="0" y="0" width="1024" height="177"></rect>
        <rect id="path-3" x="0" y="0" width="1024" height="222"></rect>
        <rect id="path-5" x="0" y="0" width="1024" height="152"></rect>
    </defs>
    <g id="Page-1" stroke="none" stroke-width="1" fill="none" fill-rule="evenodd">
        <g id="Desktop">
            <rect id="Rectangle-16" fill="#FFFFFF" x="0" y="-50" width="1024" height="608"></rect>
            <path d="M122.743222,209.482865 C93.0518943,157.429504 56.3903868,122.877591 12.7586998,105.827126 C-52.6888306,80.2514273 -77.1741182,49.203067 -82.3183573,3.43413599 C-87.4625964,-42.3347951 -24.8001663,-98.6081671 39.9729666,-88.5111007 C104.746099,-78.4140343 142.294771,-38.0979659 147.351814,48.3820227 C150.723177,106.035348 142.520312,159.735629 122.743222,209.482865 Z" id="Path-5" fill="#FFFF3C" transform="translate(32.736788, 59.891705) scale(-1, 1) rotate(46.000000) translate(-32.736788, -59.891705) "></path>
            <path d="M198.305051,206.584834 C168.613723,154.531473 131.952216,119.97956 88.3205287,102.929095 C22.8729982,77.3533964 -1.61228937,46.3050361 -6.75652843,0.536105019 C-11.9007675,-45.232826 50.7616626,-101.506198 115.534795,-91.4091317 C180.307928,-81.3120653 217.8566,-40.9959969 222.913643,45.4839917 C226.285005,103.137317 218.082141,156.837598 198.305051,206.584834 Z" id="Path-5" fill="#916298" transform="translate(108.298617, 56.993674) scale(-1, 1) rotate(21.000000) translate(-108.298617, -56.993674) "></path>
            <path d="M247.511935,222.305228 C217.820607,170.251867 181.1591,135.699954 137.527413,118.649488 C72.0798821,93.0737898 47.5945945,62.0254295 42.4503555,16.2564984 C37.3061164,-29.5124326 99.9685465,-85.7858046 164.741679,-75.6887383 C229.514812,-65.5916719 267.063484,-25.2756034 272.120527,61.2043852 C275.491889,118.857711 267.289025,172.557992 247.511935,222.305228 Z" id="Path-5" fill="#4F94F8" transform="translate(157.505500, 72.714067) scale(-1, 1) rotate(4.000000) translate(-157.505500, -72.714067) "></path>
            <text id="SPLASH" opacity="0.671535326" transform="translate(598.500000, 417.001794) rotate(-5.000000) translate(-598.500000, -417.001794) " font-family="CircularStd-Black, Circular Std" font-size="172" font-weight="700" line-spacing="40" fill-opacity="0.930904665" fill="#FFFF3C">
                <tspan x="240" y="524.001794">SPLASH</tspan>
            </text>
            <g id="Bottom-Wave" transform="translate(0.000000, 380.000000)">
                <mask id="mask-2" fill="white">
                    <use xlink:href="#path-1"></use>
                </mask>
                <g id="Mask"></g>
                <path d="M-9.77313609,111.210715 C214.512299,111.210715 338.691385,26 473.708234,26 C608.725084,26 765.916116,111.210715 1014.28801,111.210715 C1104.22883,111.210715 1241.96557,186.217346 1034.22686,217.658215 C940.027852,231.915062 166.595794,217.658215 10.2268639,217.658215 C-78.8697764,217.658215 -85.5364431,182.175715 -9.77313609,111.210715 Z" id="Path-3" fill="#3BA6FF" opacity="0.616621377" mask="url(#mask-2)"></path>
            </g>
            <g id="Middle-Wave" transform="translate(0.000000, 335.000000)">
                <mask id="mask-4" fill="white">
                    <use xlink:href="#path-3"></use>
                </mask>
                <g id="Mask"></g>
                <path d="M-91.3452107,248.38855 C-4.20098315,157.179836 62.7655541,92 147.009613,92 C231.253672,92 352.932744,174.243818 526.8288,179.407492 C700.724855,184.571167 755.357864,113.790436 927.225121,115.167743 C1099.09238,116.545051 1114.09777,224.974171 1184.39228,257.888725 C1231.2553,279.831761 808.683567,279.831761 -83.3229035,257.888725 C-146.76726,312.361084 -149.441362,309.194358 -91.3452107,248.38855 Z" id="Path-4" fill="#3498FD" opacity="0.616621377" mask="url(#mask-4)"></path>
            </g>
            <g id="Top-Wave" transform="translate(0.000000, 405.000000)">
                <mask id="mask-6" fill="white">
                    <use xlink:href="#path-5"></use>
                </mask>
                <g id="Mask"></g>
                <path d="M-80.5311945,-86.6501443 C-165.849394,-58.9054704 -95.755522,136.173226 219.17941,106.260276 C534.114341,76.3473262 640.291414,11.2557626 721.318928,14.4596427 C802.346443,17.6635229 879.331525,59.5521295 1026.11217,86.5076037 C1123.96594,104.47792 1102.71039,137.455725 962.345544,185.441019 L-88.5010309,185.441019 C-26.3090069,-14.4495391 -23.6523947,-105.146594 -80.5311945,-86.6501443 Z" id="Path-2" fill="#2D73F4" opacity="0.616621377" mask="url(#mask-6)"></path>
            </g>
            <path d="M202.667189,406.937182 C199.100726,400.684636 194.697019,396.53433 189.456068,394.486262 C181.594642,391.41416 178.653518,387.684693 178.035602,382.187021 C177.417687,376.689348 184.944572,369.929903 192.724992,371.142743 C200.505411,372.355582 205.015682,377.198268 205.623124,387.586071 C206.028085,394.511273 205.042774,400.961644 202.667189,406.937182 Z" id="Path-5" fill-opacity="0.919553895" fill="#4F94F8"></path>
            <path d="M108.080101,407.469793 C106.572133,404.826099 104.710162,403.071271 102.494189,402.205309 C99.1702295,400.906366 97.9266668,399.329477 97.6654004,397.004957 C97.4041339,394.680437 100.586644,391.822416 103.876352,392.335228 C107.16606,392.848039 109.073088,394.895618 109.329926,399.287778 C109.501151,402.215884 109.084543,404.943223 108.080101,407.469793 Z" id="Path-5" fill-opacity="0.695425725" fill="#4F94F8" transform="translate(103.508840, 399.872333) rotate(-60.000000) translate(-103.508840, -399.872333) "></path>
            <path d="M937.667189,328.937182 C934.100726,322.684636 929.697019,318.53433 924.456068,316.486262 C916.594642,313.41416 913.653518,309.684693 913.035602,304.187021 C912.417687,298.689348 919.944572,291.929903 927.724992,293.142743 C935.505411,294.355582 940.015682,299.198268 940.623124,309.586071 C941.028085,316.511273 940.042774,322.961644 937.667189,328.937182 Z" id="Path-5" fill-opacity="0.432971014" fill="#4F94F8" transform="translate(926.855796, 310.968591) scale(-1, 1) rotate(7.000000) translate(-926.855796, -310.968591) "></path>
            <path d="M1100.74322,346.482865 C1071.05189,294.429504 1034.39039,259.877591 990.7587,242.827126 C925.311169,217.251427 900.825882,186.203067 895.681643,140.434136 C890.537404,94.6652049 953.199834,38.3918329 1017.97297,48.4888993 C1082.7461,58.5859657 1120.29477,98.9020341 1125.35181,185.382023 C1128.72318,243.035348 1120.52031,296.735629 1100.74322,346.482865 Z" id="Path-5" fill-opacity="0.432971014" fill="#4F94F8" transform="translate(1010.736788, 196.891705) rotate(46.000000) translate(-1010.736788, -196.891705) "></path>
            <path d="M1135.02869,359.149341 C1105.33737,307.09598 1068.67586,272.544067 1025.04417,255.493601 C959.596641,229.917903 935.111354,198.869542 929.967115,153.100611 C924.822875,107.33168 987.485306,51.0583083 1052.25844,61.1553747 C1117.03157,71.2524411 1154.58024,111.56851 1159.63729,198.048498 C1163.00865,255.701824 1154.80578,309.402105 1135.02869,359.149341 Z" id="Path-5" fill="#3C89F8" opacity="0.615772192" transform="translate(1045.022260, 209.558180) rotate(58.000000) translate(-1045.022260, -209.558180) "></path>
            <path d="M985.080101,405.469793 C983.572133,402.826099 981.710162,401.071271 979.494189,400.205309 C976.17023,398.906366 974.926667,397.329477 974.6654,395.004957 C974.404134,392.680437 977.586644,389.822416 980.876352,390.335228 C984.16606,390.848039 986.073088,392.895618 986.329926,397.287778 C986.501151,400.215884 986.084543,402.943223 985.080101,405.469793 Z" id="Path-5" fill-opacity="0.443217844" fill="#4F94F8" transform="translate(980.508840, 397.872333) scale(-1, 1) rotate(-72.000000) translate(-980.508840, -397.872333) "></path>
        </g>
    </g>
</svg>