<?xml version="1.0" encoding="UTF-8"?>
<svg width="87px" height="125px" viewBox="0 0 87 125" version="1.1" xmlns="http://www.w3.org/2000/svg" xmlns:xlink="http://www.w3.org/1999/xlink">
    <!-- Generator: Sketch 47.1 (45422) - http://www.bohemiancoding.com/sketch -->
    <title>Group 5</title>
    <desc>Created with Sketch.</desc>
    <defs>
        <path d="M26.0004605,2.84090909 L60.9292997,2.84090909 L60.9367513,2.42797766 C60.9608088,1.09481812 62.0692707,0 63.4122567,0 L80.2988741,0 C81.6519795,0 83.2369368,0.967672975 83.8615777,2.16135808 L86.2717655,6.76721334 C86.3175462,6.85469998 86.3569116,6.94086892 86.3900392,7.02545085 C86.7738644,7.55765492 87,8.21221764 87,8.92215755 L87,108.772648 C87,110.562238 85.5445501,112.012987 83.761357,112.012987 L3.23864302,112.012987 C1.44998987,112.012987 0,110.570358 0,108.772648 L0,8.92215755 C0,8.31036044 0.170100273,7.73816406 0.465244285,7.24999376 C0.507125584,7.09506169 0.570969408,6.93351826 0.657994738,6.76721334 L3.06818255,2.16135808 C3.69282339,0.967672975 5.27778072,0 6.63088613,0 L23.5175036,0 C24.8604896,0 25.9689514,1.09481812 25.993009,2.42797766 L26.0004605,2.84090909 Z" id="path-1"></path>
        <rect id="path-2" x="1.61111111" y="110.38961" width="83.7777778" height="14.6103896" rx="1.62"></rect>
        <rect id="path-3" x="7.25" y="17.0454545" width="72.5" height="57.6298701" rx="6.48"></rect>
    </defs>
    <g id="Page-1" stroke="none" stroke-width="1" fill="none" fill-rule="evenodd">
        <g id="Desktop" transform="translate(-742.000000, -867.000000)">
            <g id="Group-5" transform="translate(685.000000, 829.000000)">
                <rect id="Rectangle-6" x="0" y="0" width="200" height="200"></rect>
                <g id="Group" transform="translate(57.000000, 38.000000)">
                    <g id="Rectangle-544">
                        <use fill="#FFFFFF" fill-rule="evenodd" xlink:href="#path-1"></use>
                        <path stroke="#5A626E" stroke-width="2.43" d="M62.1225722,4.05590909 L24.807188,4.05590909 L24.7782067,2.44989939 C24.7660495,1.77620315 24.1951014,1.215 23.5175036,1.215 L6.63088613,1.215 C5.73427501,1.215 4.56173304,1.92773542 4.14469863,2.7246858 L1.73451082,7.33054107 C1.68844586,7.41857094 1.65680873,7.4980137 1.638146,7.56705301 L1.59350115,7.73220832 L1.50498574,7.87861345 C1.31600857,8.19118303 1.215,8.54799667 1.215,8.92215755 L1.215,108.772648 C1.215,109.896198 2.11787948,110.797987 3.23864302,110.797987 L83.761357,110.797987 C84.8755839,110.797987 85.785,109.889153 85.785,108.772648 L85.785,8.92215755 C85.785,8.48692347 85.6508781,8.07766317 85.4045857,7.73615924 L85.3147351,7.61157422 L85.258717,7.46854788 C85.2416761,7.42503888 85.2205767,7.37894131 85.1952494,7.33054107 L82.7850616,2.7246858 C82.3680272,1.92773542 81.1954852,1.215 80.2988741,1.215 L63.4122567,1.215 C62.7346588,1.215 62.1637107,1.77620315 62.1515535,2.44989939 L62.1225722,4.05590909 Z"></path>
                    </g>
                    <ellipse id="Oval-127" stroke="#5A626E" stroke-width="1.215" fill="#B5C2EB" cx="10.4722222" cy="99.025974" rx="3.22222222" ry="3.24675325"></ellipse>
                    <path d="M67.6903477,90.9090909 L44.3055556,90.9090909 C43.8650665,90.9090909 43.5,90.5456857 43.5,90.0974026 C43.5,89.6459942 43.8606595,89.2857143 44.3055556,89.2857143 L76.5277778,89.2857143 C76.9682668,89.2857143 77.3333333,89.6491195 77.3333333,90.0974026 L77.3333333,90.9090909 L77.3097812,90.9090909 C77.3251571,90.9718655 77.3333333,91.0374824 77.3333333,91.1050072 L77.3333333,91.9090909 C77.3333333,92.8119078 76.6089378,93.5324675 75.7153507,93.5324675 L67.6666667,93.5324675 L67.6666667,91.1050072 C67.6666667,91.0376723 67.6748764,90.972027 67.6903477,90.9090909 Z" id="Line" stroke="#5A626E" stroke-width="0.5" fill="#5A626E" stroke-linecap="square"></path>
                    <rect id="Rectangle-540" stroke="#5A626E" stroke-width="2.43" x="1.215" y="13.3903247" width="84.57" height="97.4076623" rx="3.24"></rect>
                    <g id="Rectangle-547">
                        <use fill="#FFFFFF" fill-rule="evenodd" xlink:href="#path-2"></use>
                        <rect stroke="#5A626E" stroke-width="2.43" x="2.82611111" y="111.60461" width="81.3477778" height="12.1803896" rx="1.62"></rect>
                    </g>
                    <g id="Rectangle-546">
                        <use fill="#B9BDF5" fill-rule="evenodd" xlink:href="#path-3"></use>
                        <rect stroke="#B9BDF5" stroke-width="2.43" x="8.465" y="18.2604545" width="70.07" height="55.1998701" rx="6.48"></rect>
                    </g>
                    <path d="M9.66666667,69.7901094 L27.7916667,48.2803694" id="Line" stroke="#FEFFFF" stroke-width="2.43" stroke-linecap="square"></path>
                    <path d="M73.6019782,17.0454545 C77.160909,17.0454545 80.0459924,19.9527345 80.0459924,23.5443084 L80.0459924,68.1764709 C80.0459924,71.7656887 77.167332,74.6753247 73.601705,74.6753247 L28.1944444,74.6753247 L45.3655699,17.0454545 L73.6019782,17.0454545 Z" id="Rectangle-546" fill="#BEC2FD"></path>
                    <path d="M35.4444444,55.1948052 L27.9898237,48.4345692" id="Line" stroke="#FEFFFF" stroke-width="2.43" stroke-linecap="square"></path>
                    <path d="M35.4444444,55.1948052 L52.3611111,34.9025974" id="Line" stroke="#FEFFFF" stroke-width="2.43" stroke-linecap="square"></path>
                    <path d="M54.5012011,28.2077256 C54.7226653,27.821207 55.081368,27.8205756 55.3031941,28.2077256 L58.9317567,34.5406075 C59.1532209,34.9271261 58.9744122,35.2404614 58.5150041,35.2404614 L51.2893911,35.2404614 C50.8377607,35.2404614 50.6508125,34.9277576 50.8726385,34.5406075 L54.5012011,28.2077256 Z" id="Triangle-649" stroke="#FEFFFF" stroke-width="2.025" fill="#FEFFFF" transform="translate(54.749194, 31.579031) rotate(-318.000000) translate(-54.749194, -31.579031) "></path>
                    <rect id="Rectangle-546" stroke="#5A626E" stroke-width="2.43" x="8.465" y="18.2604545" width="70.07" height="55.1998701" rx="6.48"></rect>
                </g>
            </g>
        </g>
    </g>
</svg>