<?xml version="1.0" encoding="UTF-8"?>
<svg width="460px" height="594px" viewBox="0 0 460 594" version="1.1" xmlns="http://www.w3.org/2000/svg" xmlns:xlink="http://www.w3.org/1999/xlink">
    <!-- Generator: Sketch 47.1 (45422) - http://www.bohemiancoding.com/sketch -->
    <title>Group 2</title>
    <desc>Created with Sketch.</desc>
    <defs></defs>
    <g id="Page-1" stroke="none" stroke-width="1" fill="none" fill-rule="evenodd">
        <g id="Group-2" transform="translate(18.000000, 16.000000)" stroke="#2D213F" stroke-width="36">
            <path d="M145.200841,420.646473 C60.8466054,430.082481 0,456.901517 0,488.512725 C0,527.994057 94.915633,560 212,560 C329.084367,560 424,527.994057 424,488.512725 C424,456.146168 360.210794,428.803536 272.71247,420" id="Oval" fill="#92C1CA"></path>
            <g id="noun_396402_cc" transform="translate(201.904762, 240.000000) scale(1, -1) translate(-201.904762, -240.000000) " fill-rule="nonzero">
                <g id="Group">
                    <path d="M64.6623094,61.6363636 C103.291741,24 153.677956,5.18181818 204.064171,5.18181818 C254.450386,5.18181818 304.836601,24 343.466033,61.6363636 C420.724896,136.909091 420.724896,258.818182 343.466033,333.272727 L204.064171,469.909091 L64.6623094,333.272727 C27.7124183,297.272727 6.71816201,249 6.71816201,197.454545 C6.71816201,145.909091 27.7124183,97.6363636 64.6623094,61.6363636 Z" id="Shape" fill="#AAE1E9"></path>
                    <path d="M204.064171,110.727273 C252.770846,110.727273 292.240048,149.181818 292.240048,196.636364 C292.240048,244.090909 252.770846,282.545455 204.064171,282.545455 C155.357497,282.545455 115.888295,244.090909 115.888295,196.636364 C115.888295,149.181818 155.357497,110.727273 204.064171,110.727273 Z" id="Shape" fill="#FFFFFF"></path>
                </g>
            </g>
        </g>
    </g>
</svg>