<?xml version="1.0" encoding="UTF-8"?>
<svg width="202px" height="200px" viewBox="0 0 202 200" version="1.1" xmlns="http://www.w3.org/2000/svg" xmlns:xlink="http://www.w3.org/1999/xlink">
    <!-- Generator: Sketch 47.1 (45422) - http://www.bohemiancoding.com/sketch -->
    <title>Group 4</title>
    <desc>Created with Sketch.</desc>
    <defs>
        <path d="M3.59689922,49.0538147 C4.19161045,42.5559537 4.61618794,37.9169871 4.61618794,37.9169871 C4.98011633,33.9406773 8.49566932,30.7172414 12.4682615,30.7172414 L101.491073,30.7172414 C109.437742,30.7172414 115.87979,37.1828082 115.87979,45.1794666 L115.87979,94.8550162 C115.87979,102.842283 109.44422,109.317241 101.488012,109.317241 L88.2861335,109.317241" id="path-1"></path>
        <path d="M101.617795,51.0577175 C104.297103,49.8095379 105.805855,46.8045681 105.065211,43.8340095 L95.3345152,4.80631862 C94.4949285,1.43892017 91.075155,-0.615081693 87.6983031,0.226862056 L23.6349539,16.199649 C20.2583893,17.0415211 18.2019918,20.4569458 19.0425034,23.8280536 L25.8316211,51.0577175 L101.617795,51.0577175 Z" id="path-2"></path>
        <path d="M30.5736434,72.2758621 C30.5736434,69.2820978 33.0059843,66.8551724 35.9956595,66.8551724 L98.8880615,66.8551724 C101.882558,66.8551724 104.310078,69.2881895 104.310078,72.2758621 L104.310078,77.6965517 L30.5736434,77.6965517 L30.5736434,72.2758621 Z" id="path-3"></path>
        <path d="M30.5736434,59.6275862 C30.5736434,56.633822 33.0059843,54.2068966 35.9956595,54.2068966 L98.8880615,54.2068966 C101.882558,54.2068966 104.310078,56.6399137 104.310078,59.6275862 L104.310078,65.0482759 L30.5736434,65.0482759 L30.5736434,59.6275862 Z" id="path-4"></path>
    </defs>
    <g id="Page-1" stroke="none" stroke-width="1" fill="none" fill-rule="evenodd">
        <g id="Desktop" transform="translate(-427.000000, -834.000000)">
            <g id="Group-4" transform="translate(427.000000, 834.000000)">
                <rect id="Rectangle-5" fill="#FFFFFF" x="0" y="0" width="202" height="200"></rect>
                <g id="Group" transform="translate(43.000000, 35.000000)">
                    <g id="Rectangle-537">
                        <use fill="#FFFFFF" fill-rule="evenodd" xlink:href="#path-1"></use>
                        <path stroke="#5A626E" stroke-width="2.7" d="M5.01202526,48.4038926 L88.717428,107.967241 L101.488012,107.967241 C108.694331,107.967241 114.52979,102.101008 114.52979,94.8550162 L114.52979,45.1794666 C114.52979,37.9302356 108.693978,32.0672414 101.491073,32.0672414 L12.4682615,32.0672414 C9.19491916,32.0672414 6.26100929,34.7573962 5.96056897,38.0400304 L5.67394132,41.1717464 C5.39577692,44.2109922 5.36891765,44.5044587 5.05310386,47.9550646 L5.01202526,48.4038926 Z"></path>
                    </g>
                    <g id="Rectangle-535">
                        <use fill="#BEC2FD" fill-rule="evenodd" xlink:href="#path-2"></use>
                        <path stroke="#2F6F7E" stroke-width="2.7" d="M101.299781,49.7077175 C103.267902,48.6505912 104.306696,46.3720855 103.755312,44.1606041 L94.024616,5.13291318 C93.3651769,2.48804743 90.6774054,0.875416833 88.0248977,1.53676129 L23.9615485,17.5095482 C21.3078138,18.1711986 19.6924159,20.8543969 20.3524026,23.501459 L26.8863567,49.7077175 L101.299781,49.7077175 Z"></path>
                    </g>
                    <path d="M101.299781,49.7077175 C103.267902,48.6505912 104.306696,46.3720855 103.755312,44.1606041 L94.024616,5.13291318 C93.3651769,2.48804743 90.6774054,0.875416833 88.0248977,1.53676129 L23.9615485,17.5095482 C21.3078138,18.1711986 19.6924159,20.8543969 20.3524026,23.501459 L26.8863567,49.7077175 L101.299781,49.7077175 Z" id="Rectangle-535" stroke="#5A626E" stroke-width="2.7"></path>
                    <g id="Rectangle-538">
                        <use fill="#B5C2EB" fill-rule="evenodd" xlink:href="#path-3"></use>
                        <path stroke="#5A626E" stroke-width="1.8" d="M31.4736434,76.7965517 L103.410078,76.7965517 L103.410078,72.2758621 C103.410078,69.7830349 101.383292,67.7551724 98.8880615,67.7551724 L35.9956595,67.7551724 C33.5012024,67.7551724 31.4736434,69.780991 31.4736434,72.2758621 L31.4736434,76.7965517 Z"></path>
                    </g>
                    <g id="Rectangle-538">
                        <use fill="#ACD1D9" fill-rule="evenodd" xlink:href="#path-4"></use>
                        <path stroke="#5A626E" stroke-width="1.8" d="M31.4736434,64.1482759 L103.410078,64.1482759 L103.410078,59.6275862 C103.410078,57.134759 101.383292,55.1068966 98.8880615,55.1068966 L35.9956595,55.1068966 C33.5012024,55.1068966 31.4736434,57.1327152 31.4736434,59.6275862 L31.4736434,64.1482759 Z"></path>
                    </g>
                    <path d="M6.42096967,36.137931 C6.42096967,36.137931 1.92484585,44.2689655 11.8163187,46.9793103 C21.7077916,49.6896552 81.9558536,65.0482759 81.9558536,65.0482759 C81.9558536,65.0482759 94.9946133,68.2103448 93.1961637,80.4068966 C91.3977141,92.6034483 86.4519776,117.9 86.4519776,117.9 C86.4519776,117.9 84.2039156,134.162069 66.2194195,129.193103 C48.2349234,124.224138 8.66903189,113.382759 8.66903189,113.382759 C8.66903189,113.382759 -1.22244097,109.974466 0.126396244,97.1206897 C1.47523345,84.2669129 4.72306903,46.1206302 5.52174487,39.3" id="Path-1030" stroke="#5A626E" stroke-width="2.7" fill="#FFFFFF"></path>
                </g>
            </g>
        </g>
    </g>
</svg>