<?xml version="1.0" encoding="UTF-8"?>
<svg width="473px" height="150px" viewBox="0 0 473 150" version="1.1" xmlns="http://www.w3.org/2000/svg" xmlns:xlink="http://www.w3.org/1999/xlink">
    <!-- Generator: Sketch 47.1 (45422) - http://www.bohemiancoding.com/sketch -->
    <title>Group 4</title>
    <desc>Created with Sketch.</desc>
    <defs></defs>
    <g id="Page-1" stroke="none" stroke-width="1" fill="none" fill-rule="evenodd">
        <g id="Group-4" transform="translate(5.000000, -51.000000)">
            <text id="splish" font-family="Funkydori" font-size="160" font-weight="normal" line-spacing="230" fill="#2D213F">
                <tspan x="175" y="176">splish</tspan>
            </text>
            <g id="Group-2" transform="translate(0.000000, 55.000000)" stroke="#2D213F" stroke-width="9">
                <path d="M35.9577555,105.161618 C15.0681452,107.52062 0,114.225379 0,122.128181 C0,131.998514 23.5050506,140 52.5,140 C81.4949494,140 105,131.998514 105,122.128181 C105,114.036542 89.2031449,107.200884 67.5349277,105" id="Oval" fill="#92C1CA"></path>
                <g id="noun_396402_cc" transform="translate(50.000000, 60.000000) scale(1, -1) translate(-50.000000, -60.000000) " fill-rule="nonzero">
                    <g id="Group">
                        <path d="M16.0130719,15.4090909 C25.5793226,6 38.057041,1.29545455 50.5347594,1.29545455 C63.0124777,1.29545455 75.4901961,6 85.0564468,15.4090909 C104.188948,34.2272727 104.188948,64.7045455 85.0564468,83.3181818 L50.5347594,117.477273 L16.0130719,83.3181818 C6.8627451,74.3181818 1.66369578,62.25 1.66369578,49.3636364 C1.66369578,36.4772727 6.8627451,24.4090909 16.0130719,15.4090909 Z" id="Shape" fill="#AAE1E9"></path>
                        <path d="M50.5347594,27.6818182 C62.5965538,27.6818182 72.3707665,37.2954545 72.3707665,49.1590909 C72.3707665,61.0227273 62.5965538,70.6363636 50.5347594,70.6363636 C38.4729649,70.6363636 28.6987522,61.0227273 28.6987522,49.1590909 C28.6987522,37.2954545 38.4729649,27.6818182 50.5347594,27.6818182 Z" id="Shape" fill="#FFFFFF"></path>
                    </g>
                </g>
            </g>
        </g>
    </g>
</svg>